# xmcd
#
# Track frame offsets:
#	150
#	13767
#	28546
#	47137
#	59052
#	71889
#	93100
#	110132
#	126694
#
# Disc length: 2114 seconds
#
# Revision: 1
# Processed by: cddbd v1.5.2PL0 Copyright (c) Steve Scherf et al.
# Submitted via: audiograbber 1.83.01
#
DISCID=88084009
DTITLE=Anaphylactic Shock - Two Thousand Years
DYEAR=2008
DGENRE=black metal
TTITLE0=Ultimatum
TTITLE1=Granite
TTITLE2=Charlatan
TTITLE3=Death Over Life
TTITLE4=Waging War
TTITLE5=Holy Land
TTITLE6=The Future Flowed Bleak And Ugly
TTITLE7=Skeletons
TTITLE8=Abandon All Hope
EXTD=
EXTT0=
EXTT1=
EXTT2=
EXTT3=
EXTT4=
EXTT5=
EXTT6=
EXTT7=
EXTT8=
PLAYORDER=
